PathFileType	4	(X/Y/Z)	C:\Users\ebm\Documents\Erivelton\Erivelton2\wc2.trc
DataRate	CameraRate	NumFrames	NumMarkers	Units	OrigDataRate	OrigDataStartFrame	OrigNumFrames
150.00	150.00	      13	28	mm	150.00	348	      1389
Frame#	Time	IJ			PX			C7			T8			RAC			RAS			RPS			RAI			RPI			RLE			RME			RRS			RUS			R3M			R5M			LAC			LAS			LPS			LAI			LPI			LLE			LME			LRS			LUS			L3M			L5M			RW			LW			V_mid_elbow_r			V_mid_elbow_l			V_mid_wrist_r			V_mid_wrist_l			V_mid_trunk_low			V_mid_trunk_upp			
		X1	Y1	Z1	X2	Y2	Z2	X3	Y3	Z3	X4	Y4	Z4	X5	Y5	Z5	X6	Y6	Z6	X7	Y7	Z7	X8	Y8	Z8	X9	Y9	Z9	X10	Y10	Z10	X11	Y11	Z11	X12	Y12	Z12	X13	Y13	Z13	X14	Y14	Z14	X15	Y15	Z15	X16	Y16	Z16	X17	Y17	Z17	X18	Y18	Z18	X19	Y19	Z19	X20	Y20	Z20	X21	Y21	Z21	X22	Y22	Z22	X23	Y23	Z23	X24	Y24	Z24	X25	Y25	Z25	X26	Y26	Z26	X27	Y27	Z27	X28	Y28	Z28	

348	2.313							-1183.50195	1128.56018	-47.39320	-1269.30884	979.67896	-35.60371	-1136.64429	1081.55969	155.45590				-1247.17773	981.52155	248.40269	-1257.59583	898.40509	295.53769	-1296.94995	934.92010	291.70230	-1325.31860	875.21912	325.76224	-1363.34631	856.46088	254.86284	-1189.96399	646.55334	271.83688	-1230.64648	630.26532	313.56992	-1195.65015	558.28284	313.46371	-1160.39661	574.50903	304.16241	-1157.11121	1075.27917	-222.86090	-1249.56750	979.97675	-310.72943	-1283.65759	992.14984	-280.36044	-1295.59924	927.43896	-351.62863	-1336.52417	939.88867	-319.02737	-1352.19556	861.32214	-387.89331	-1392.74146	847.49286	-319.45688	-1207.24683	644.02252	-348.77768	-1246.76416	612.63440	-386.25934	-1172.90625	570.74030	-383.87933										
349	2.320							-1178.84863	1128.62610	-47.25517	-1264.73083	979.73578	-35.54360	-1132.67371	1081.65942	155.20111				-1244.90271	983.08887	247.75519	-1256.68372	900.38092	294.56915	-1295.61353	937.27637	290.42084	-1324.97498	878.15210	324.29135	-1362.79578	860.04272	253.05943	-1192.99121	647.61774	270.08435	-1233.79309	631.85101	312.09756	-1199.09497	559.59711	311.63889	-1163.97888	575.49487	303.41388	-1152.95789	1075.59668	-222.43739	-1247.02002	981.65405	-309.78912	-1280.81702	994.56433	-279.17386	-1294.02527	929.74780	-350.32639	-1334.49426	942.70624	-317.29623	-1351.76746	864.37494	-386.28058	-1392.06238	851.22394	-317.42993	-1210.00305	644.94336	-347.37552	-1250.16479	613.84583	-384.72345	-1176.60205	571.35425	-382.10187										
350	2.327							-1174.13452	1128.68262	-47.09991	-1260.08569	979.79181	-35.48450	-1128.60803	1081.68591	155.02985				-1242.42969	984.54535	246.87485	-1255.52283	902.08911	293.50137	-1294.12488	939.42328	289.27414	-1324.36816	880.74414	322.80676	-1361.96924	863.31140	251.27443	-1195.68530	648.58032	268.19257	-1236.54651	633.11737	310.60910	-1202.07532	560.43182	310.04062	-1167.19836	576.25250	302.51779	-1148.80469	1075.84070	-222.11063	-1244.21655	983.12250	-308.93289	-1277.41785	996.12085	-277.88687	-1292.21057	931.74707	-348.99265	-1332.23999	945.27008	-315.67969	-1351.07874	867.15881	-384.52460	-1391.07983	854.71747	-315.41934	-1212.68420	645.63385	-345.67746	-1253.26392	614.91498	-383.11700	-1179.91956	571.82697	-380.20557										
351	2.333							-1169.42126	1128.74829	-46.97003	-1255.47644	979.86414	-35.45211	-1124.48718	1081.64526	154.86697				-1239.87183	985.80518	246.11206	-1254.29053	903.67621	292.76212	-1292.47266	941.26111	288.04999	-1323.52002	883.03333	321.38452	-1360.77771	866.23615	249.43890	-1198.02661	649.09723	266.25037	-1238.77100	634.08868	308.93326	-1204.70801	561.12036	308.22888	-1169.42529	577.04144	298.57617	-1144.53162	1075.97644	-221.87402	-1241.25806	984.36737	-308.05438	-1274.06702	997.76874	-276.78757	-1290.20129	933.56854	-347.73380	-1329.77722	947.55078	-314.12543	-1350.12061	869.65295	-382.84784	-1389.84705	857.97308	-313.34494	-1215.03796	646.10724	-343.88086	-1255.90588	615.79425	-381.46317	-1182.90088	572.09070	-378.23309										
352	2.340							-1164.67627	1128.75806	-46.84527	-1251.11560	979.59131	-35.50126	-1120.32898	1081.58203	154.72635				-1237.14270	986.77594	245.37784	-1252.70898	904.96588	291.81128	-1289.48193	943.81146	286.50787	-1322.41455	884.98859	319.98254	-1359.31384	868.79077	247.66980	-1199.98352	649.48248	264.32611	-1240.53857	634.70575	307.34534	-1207.01880	561.73273	306.28595	-1171.68823	577.40411	297.08517	-1140.18359	1076.07239	-221.62549	-1238.21033	985.40607	-307.25891	-1270.80334	999.54218	-275.84344	-1287.93140	935.09479	-346.47614	-1327.12146	949.55634	-312.61679	-1348.83691	871.80328	-381.23584	-1388.25745	860.88086	-311.28302	-1217.03162	646.41376	-342.16931	-1258.10327	616.25098	-379.05191	-1185.45630	572.09180	-376.08170										
353	2.347							-1159.94006	1128.76331	-46.79905	-1247.05444	980.05377	-35.56919	-1116.17480	1081.46460	154.61868				-1234.11536	987.60089	244.29549	-1250.85620	905.89154	290.93149	-1287.26599	945.07770	285.23517	-1320.85864	886.48877	318.43774	-1357.48450	870.92657	245.97476	-1201.56482	649.53815	262.28586	-1242.09949	635.27948	305.73648	-1208.64697	561.75372	304.69443	-1173.60571	577.64178	296.10574	-1135.77661	1076.03601	-221.42706	-1234.93079	986.22644	-306.48367	-1267.21619	1000.78442	-274.84317	-1285.50867	936.36621	-345.24173	-1324.28406	951.26239	-311.14212	-1347.33728	873.68256	-379.46780	-1386.34668	863.46265	-309.25598	-1218.64514	646.45569	-340.40253	-1259.99109	616.68134	-377.48407	-1187.62939	571.88763	-373.83441										
354	2.353							-1155.15417	1128.81702	-46.74516	-1242.94214	980.45819	-35.64941	-1111.96240	1081.28650	154.52689				-1231.23145	988.09265	243.93735	-1248.77002	906.60736	290.14297	-1284.81738	946.05798	284.20343	-1319.03589	887.72180	317.09961	-1355.28992	872.63385	244.38998	-1202.70679	649.30927	260.14877	-1243.12256	635.34564	303.95844	-1210.24658	561.56616	302.59317	-1175.22827	577.40729	293.28998	-1131.31128	1076.01965	-221.28075	-1231.57654	986.86902	-305.81430	-1263.36243	1001.49762	-273.85602	-1282.82458	937.30237	-344.11481	-1321.23621	952.70386	-309.78659	-1345.51526	875.20636	-377.89822	-1384.11646	865.71960	-307.23291	-1219.80652	646.32813	-338.59119	-1261.41846	616.93530	-375.81265	-1189.27209	571.44098	-371.40598										
355	2.360							-1150.36182	1128.83887	-46.70846	-1238.79224	980.78571	-35.71263	-1107.80420	1081.02185	154.45805				-1226.76917	989.51465	242.08394	-1246.26306	906.96252	289.09018	-1282.05212	946.64014	283.07312	-1316.82422	888.51361	315.67065	-1352.76379	873.89771	242.78873	-1203.43176	648.73053	258.07233	-1243.68506	634.91913	302.23447	-1211.90723	561.06738	300.46912	-1176.30603	577.11316	291.83710	-1126.83789	1075.95142	-221.18481	-1228.18811	987.36536	-305.20102	-1259.74609	1002.58533	-273.14185	-1279.90784	938.04175	-342.93506	-1318.00134	953.77960	-308.42703	-1343.33545	876.42975	-376.17572	-1381.52588	867.51056	-305.37445	-1220.57532	645.99591	-336.68405	-1262.30042	616.91510	-374.03223	-1190.34924	570.76898	-368.76791										
356	2.367							-1145.55859	1128.87036	-46.67085	-1234.53955	981.03857	-35.76519	-1103.63782	1080.73193	154.42918	-1192.02979	951.93396	251.08437	-1223.34436	989.45148	241.48297	-1243.47437	907.05084	288.17517	-1279.02441	946.94965	282.05746	-1314.14648	888.88733	314.31818	-1349.87415	874.77283	241.28085	-1203.48914	647.94171	256.53711	-1244.18933	634.28223	300.58762	-1212.28284	560.73065	298.72028				-1122.27002	1075.82727	-221.05783	-1224.58740	987.70276	-304.53574	-1255.66846	1002.86560	-272.20633	-1276.81287	938.56494	-341.85941	-1314.64844	954.61847	-307.13177	-1340.82361	877.35999	-374.74280	-1378.64246	868.95331	-303.57156	-1220.82764	645.47034	-334.86404	-1262.66736	616.66516	-372.37946	-1190.91809	569.96063	-366.22632										
357	2.373							-1140.82849	1128.89917	-46.63379	-1230.24146	981.22882	-35.79592	-1099.47534	1080.37903	154.43130	-1188.34973	951.57983	250.33363	-1219.65405	989.33710	240.76961	-1240.30286	906.79645	287.25555	-1275.67969	946.86548	281.07788	-1311.11475	888.85077	312.94031	-1346.68054	875.21893	239.81161	-1202.96777	646.85638	255.07358	-1244.02527	633.13965	298.91135	-1211.65625	560.11383	297.32568				-1117.72253	1075.70715	-220.97110	-1220.79272	987.78998	-303.87192	-1251.85388	1003.47437	-271.59329	-1273.44482	938.78156	-340.84940	-1311.04614	955.11407	-305.98007	-1337.94214	877.90643	-373.17532	-1375.36890	870.03925	-301.87909	-1220.49231	644.80432	-332.99243	-1262.47217	616.18121	-370.76575	-1190.89600	569.10443	-363.73816										
358	2.380							-1136.09497	1128.88550	-46.61145	-1225.84937	981.29724	-35.80282	-1095.27173	1079.97339	154.45226	-1184.85400	950.98352	249.80603	-1215.72864	988.84998	240.17940	-1236.78247	906.22815	286.18869	-1272.06763	946.36212	280.01367	-1307.78552	888.44867	311.64865	-1343.16125	875.26318	238.29245	-1201.66321	645.71686	253.98006	-1243.23083	631.85626	297.52417	-1210.40186	559.04144	295.93878				-1113.14172	1075.50159	-220.89590	-1216.95007	987.69434	-303.28809	-1247.78662	1003.62415	-270.86905	-1269.94324	938.82098	-339.86679	-1307.19788	955.26343	-304.82065	-1334.68420	878.10718	-371.88583	-1371.81995	870.70746	-300.26773	-1219.56653	643.88348	-331.08435	-1261.56091	615.44440	-368.94403	-1190.35400	568.18750	-361.64777										
359	2.387							-1131.32190	1128.85840	-46.59258	-1221.35059	981.29950	-35.80714	-1090.98792	1079.51318	154.55745				-1211.66821	988.07928	239.56252	-1233.10168	905.25647	285.27872	-1268.26477	945.51843	279.16870	-1304.21167	887.62286	310.27850	-1339.39258	874.84454	236.69780	-1199.31689	644.41345	253.19713	-1241.56189	630.30768	296.22296	-1208.24536	557.82080	295.44836				-1108.66528	1075.33398	-220.82695	-1212.96338	987.53583	-302.71207	-1243.41113	1003.18323	-270.12360	-1266.15881	938.54419	-338.93524	-1303.26526	955.17114	-303.80222	-1331.06897	877.92584	-370.53503	-1367.94849	870.94629	-298.82397	-1218.07935	642.73975	-329.07117	-1260.02991	614.53632	-367.35532	-1188.95667	567.18262	-359.71594										
360	2.393							-1126.63599	1128.83582	-46.56281	-1216.79504	981.21490	-35.81979	-1086.68713	1079.01428	154.69133	-1176.79761	948.93427	248.49254	-1207.69287	987.04309	239.12001	-1229.04736	903.99188	284.16458	-1264.25781	944.22516	278.17154	-1300.34460	886.26697	308.91864	-1335.24170	873.89063	235.12352	-1196.08362	643.08545	252.68185	-1238.82275	628.61682	295.16922	-1205.16077	556.99634	295.17215				-1104.14612	1075.15942	-220.78493	-1208.76160	987.09479	-302.20770	-1239.10181	1002.81232	-269.54581	-1262.08435	938.00470	-338.13046	-1299.09644	954.73035	-302.89423	-1327.06934	877.34760	-369.40250	-1363.78149	870.72296	-297.53345	-1215.90332	641.42950	-327.19925	-1257.85522	613.30566	-365.68573	-1186.70703	566.13837	-358.17920							-1073.38037	294.87637	-351.12567	
